<?xml version="1.0" encoding="UTF-8" standalone="no"?>
<svg
   xmlns:dc="http://purl.org/dc/elements/1.1/"
   xmlns:cc="http://creativecommons.org/ns#"
   xmlns:rdf="http://www.w3.org/1999/02/22-rdf-syntax-ns#"
   xmlns:svg="http://www.w3.org/2000/svg"
   xmlns="http://www.w3.org/2000/svg"
   id="svg4"
   xml:space="preserve"
   enable-background="new 0 0 200 200"
   viewBox="0 0 200 200"
   y="0px"
   x="0px"
   version="1.1"><metadata
     id="metadata10"><rdf:RDF><cc:Work
         rdf:about=""><dc:format>image/svg+xml</dc:format><dc:type
           rdf:resource="http://purl.org/dc/dcmitype/StillImage" /></cc:Work></rdf:RDF></metadata><defs
     id="defs8" /><path
     id="path2"
     d="m82.498 40c-11.713 0.03084-22.408 1.7746-32.084 5.2305-2.633 0.94789-4.529 2.6852-5.6875 5.2129-1.2639 2.4224-1.4205 4.951-0.47264 7.584 0.84253 2.5277 2.527 4.4236 5.0547 5.6875 2.4224 1.1585 4.8981 1.3152 7.4258 0.47266 3.265-1.1585 6.6357-2.0536 10.111-2.6856l0.78906 0.79102 1.5801 1.8945c0.5266 0.73727 0.78906 1.1584 0.78906 1.2637 0.52661 1.3692 0.68526 3.6353 0.47462 6.7949-0.21058 6.2139-0.26356 10.163-0.15814 11.848 2.0011 22.855 2.7904 41.338 2.3691 55.451-1.6851 0.21068-3.2109 0.36931-4.5801 0.47461-2.633 0.42129-4.8463 1.7375-6.6367 3.9492-1.6851 2.1064-2.3687 4.5292-2.0527 7.2676 0.42128 2.633 1.6846 4.8443 3.791 6.6348 2.2117 1.6851 4.6874 2.3706 7.4258 2.0547 2.2117-0.31597 5.6335-0.68613 10.268-1.1074 4.6341-0.42132 7.3213-0.68377 8.0586-0.78906 8.215-0.84256 15.06-1.8434 20.537-3.002 17.167-3.6862 29.859-11.006 38.074-21.959 4.7394-6.4246 7.5814-15.587 8.5293-27.488 1.1585-14.324-1.6834-26.436-8.5293-36.336-6.84-10.006-16.22-17.484-28.12-22.434-10.42-4.319-21.956-6.583-34.594-6.793-0.78991-0.01384-1.5766-0.01977-2.3574-0.01779zm6.7793 20.08c8.3203 0.63193 15.851 2.3183 22.592 5.0566 17.694 7.3725 25.805 20.327 24.33 38.863-0.63193 8.1097-2.2125 13.798-4.7402 17.063-5.1607 7.0565-13.902 11.9-26.225 14.533-3.5809 0.84257-7.7939 1.5281-12.639 2.0547 0.31596-14.324-0.47337-32.703-2.3692-55.137-0.10536-0.94789-0.05238-4.1071 0.15814-9.4785 0.21064-5.1607-0.15952-9.4795-1.1074-12.955z"
     fill="#3c61c8" /></svg>
